<svg xmlns="http://www.w3.org/2000/svg" viewBox="-2 -2 4 4" style="width: 1024px; height: 1024px; background-color: rgb(238, 238, 238); user-select: none;" stroke-width="0.015">
            <g stroke-opacity="1" fill-opacity="1"><line x1="-4" y1="-10" x2="-4" y2="10" stroke-width="0.005" stroke="#DDD"/><line x1="-3.8000000000000003" y1="-10" x2="-3.8000000000000003" y2="10" stroke-width="0.005" stroke="#DDD"/><line x1="-3.6" y1="-10" x2="-3.6" y2="10" stroke-width="0.005" stroke="#DDD"/><line x1="-3.4000000000000004" y1="-10" x2="-3.4000000000000004" y2="10" stroke-width="0.005" stroke="#DDD"/><line x1="-3.2" y1="-10" x2="-3.2" y2="10" stroke-width="0.005" stroke="#DDD"/><line x1="-3" y1="-10" x2="-3" y2="10" stroke-width="0.005" stroke="#DDD"/><line x1="-2.8000000000000003" y1="-10" x2="-2.8000000000000003" y2="10" stroke-width="0.005" stroke="#DDD"/><line x1="-2.6" y1="-10" x2="-2.6" y2="10" stroke-width="0.005" stroke="#DDD"/><line x1="-2.4000000000000004" y1="-10" x2="-2.4000000000000004" y2="10" stroke-width="0.005" stroke="#DDD"/><line x1="-2.2" y1="-10" x2="-2.2" y2="10" stroke-width="0.005" stroke="#DDD"/><line x1="-2" y1="-10" x2="-2" y2="10" stroke-width="0.005" stroke="#DDD"/><line x1="-1.8" y1="-10" x2="-1.8" y2="10" stroke-width="0.005" stroke="#DDD"/><line x1="-1.6" y1="-10" x2="-1.6" y2="10" stroke-width="0.005" stroke="#DDD"/><line x1="-1.4000000000000001" y1="-10" x2="-1.4000000000000001" y2="10" stroke-width="0.005" stroke="#DDD"/><line x1="-1.2000000000000002" y1="-10" x2="-1.2000000000000002" y2="10" stroke-width="0.005" stroke="#DDD"/><line x1="-1" y1="-10" x2="-1" y2="10" stroke-width="0.005" stroke="#DDD"/><line x1="-0.8" y1="-10" x2="-0.8" y2="10" stroke-width="0.005" stroke="#DDD"/><line x1="-0.6000000000000001" y1="-10" x2="-0.6000000000000001" y2="10" stroke-width="0.005" stroke="#DDD"/><line x1="-0.4" y1="-10" x2="-0.4" y2="10" stroke-width="0.005" stroke="#DDD"/><line x1="-0.2" y1="-10" x2="-0.2" y2="10" stroke-width="0.005" stroke="#DDD"/><line x1="0" y1="-10" x2="0" y2="10" stroke-width="0.005" stroke="#DDD"/><line x1="0.2" y1="-10" x2="0.2" y2="10" stroke-width="0.005" stroke="#DDD"/><line x1="0.4" y1="-10" x2="0.4" y2="10" stroke-width="0.005" stroke="#DDD"/><line x1="0.6000000000000001" y1="-10" x2="0.6000000000000001" y2="10" stroke-width="0.005" stroke="#DDD"/><line x1="0.8" y1="-10" x2="0.8" y2="10" stroke-width="0.005" stroke="#DDD"/><line x1="1" y1="-10" x2="1" y2="10" stroke-width="0.005" stroke="#DDD"/><line x1="1.2000000000000002" y1="-10" x2="1.2000000000000002" y2="10" stroke-width="0.005" stroke="#DDD"/><line x1="1.4000000000000001" y1="-10" x2="1.4000000000000001" y2="10" stroke-width="0.005" stroke="#DDD"/><line x1="1.6" y1="-10" x2="1.6" y2="10" stroke-width="0.005" stroke="#DDD"/><line x1="1.8" y1="-10" x2="1.8" y2="10" stroke-width="0.005" stroke="#DDD"/><line x1="2" y1="-10" x2="2" y2="10" stroke-width="0.005" stroke="#DDD"/><line x1="2.2" y1="-10" x2="2.2" y2="10" stroke-width="0.005" stroke="#DDD"/><line x1="2.4000000000000004" y1="-10" x2="2.4000000000000004" y2="10" stroke-width="0.005" stroke="#DDD"/><line x1="2.6" y1="-10" x2="2.6" y2="10" stroke-width="0.005" stroke="#DDD"/><line x1="2.8000000000000003" y1="-10" x2="2.8000000000000003" y2="10" stroke-width="0.005" stroke="#DDD"/><line x1="3" y1="-10" x2="3" y2="10" stroke-width="0.005" stroke="#DDD"/><line x1="3.2" y1="-10" x2="3.2" y2="10" stroke-width="0.005" stroke="#DDD"/><line x1="3.4000000000000004" y1="-10" x2="3.4000000000000004" y2="10" stroke-width="0.005" stroke="#DDD"/><line x1="3.6" y1="-10" x2="3.6" y2="10" stroke-width="0.005" stroke="#DDD"/><line x1="3.8000000000000003" y1="-10" x2="3.8000000000000003" y2="10" stroke-width="0.005" stroke="#DDD"/><line x1="4" y1="-10" x2="4" y2="10" stroke-width="0.005" stroke="#DDD"/><line x1="-10" y1="-4" x2="10" y2="-4" stroke-width="0.005" stroke="#DDD"/><line x1="-10" y1="-3.8000000000000003" x2="10" y2="-3.8000000000000003" stroke-width="0.005" stroke="#DDD"/><line x1="-10" y1="-3.6" x2="10" y2="-3.6" stroke-width="0.005" stroke="#DDD"/><line x1="-10" y1="-3.4000000000000004" x2="10" y2="-3.4000000000000004" stroke-width="0.005" stroke="#DDD"/><line x1="-10" y1="-3.2" x2="10" y2="-3.2" stroke-width="0.005" stroke="#DDD"/><line x1="-10" y1="-3" x2="10" y2="-3" stroke-width="0.005" stroke="#DDD"/><line x1="-10" y1="-2.8000000000000003" x2="10" y2="-2.8000000000000003" stroke-width="0.005" stroke="#DDD"/><line x1="-10" y1="-2.6" x2="10" y2="-2.6" stroke-width="0.005" stroke="#DDD"/><line x1="-10" y1="-2.4000000000000004" x2="10" y2="-2.4000000000000004" stroke-width="0.005" stroke="#DDD"/><line x1="-10" y1="-2.2" x2="10" y2="-2.2" stroke-width="0.005" stroke="#DDD"/><line x1="-10" y1="-2" x2="10" y2="-2" stroke-width="0.005" stroke="#DDD"/><line x1="-10" y1="-1.8" x2="10" y2="-1.8" stroke-width="0.005" stroke="#DDD"/><line x1="-10" y1="-1.6" x2="10" y2="-1.6" stroke-width="0.005" stroke="#DDD"/><line x1="-10" y1="-1.4000000000000001" x2="10" y2="-1.4000000000000001" stroke-width="0.005" stroke="#DDD"/><line x1="-10" y1="-1.2000000000000002" x2="10" y2="-1.2000000000000002" stroke-width="0.005" stroke="#DDD"/><line x1="-10" y1="-1" x2="10" y2="-1" stroke-width="0.005" stroke="#DDD"/><line x1="-10" y1="-0.8" x2="10" y2="-0.8" stroke-width="0.005" stroke="#DDD"/><line x1="-10" y1="-0.6000000000000001" x2="10" y2="-0.6000000000000001" stroke-width="0.005" stroke="#DDD"/><line x1="-10" y1="-0.4" x2="10" y2="-0.4" stroke-width="0.005" stroke="#DDD"/><line x1="-10" y1="-0.2" x2="10" y2="-0.2" stroke-width="0.005" stroke="#DDD"/><line x1="-10" y1="0" x2="10" y2="0" stroke-width="0.005" stroke="#DDD"/><line x1="-10" y1="0.2" x2="10" y2="0.2" stroke-width="0.005" stroke="#DDD"/><line x1="-10" y1="0.4" x2="10" y2="0.4" stroke-width="0.005" stroke="#DDD"/><line x1="-10" y1="0.6000000000000001" x2="10" y2="0.6000000000000001" stroke-width="0.005" stroke="#DDD"/><line x1="-10" y1="0.8" x2="10" y2="0.8" stroke-width="0.005" stroke="#DDD"/><line x1="-10" y1="1" x2="10" y2="1" stroke-width="0.005" stroke="#DDD"/><line x1="-10" y1="1.2000000000000002" x2="10" y2="1.2000000000000002" stroke-width="0.005" stroke="#DDD"/><line x1="-10" y1="1.4000000000000001" x2="10" y2="1.4000000000000001" stroke-width="0.005" stroke="#DDD"/><line x1="-10" y1="1.6" x2="10" y2="1.6" stroke-width="0.005" stroke="#DDD"/><line x1="-10" y1="1.8" x2="10" y2="1.8" stroke-width="0.005" stroke="#DDD"/><line x1="-10" y1="2" x2="10" y2="2" stroke-width="0.005" stroke="#DDD"/><line x1="-10" y1="2.2" x2="10" y2="2.2" stroke-width="0.005" stroke="#DDD"/><line x1="-10" y1="2.4000000000000004" x2="10" y2="2.4000000000000004" stroke-width="0.005" stroke="#DDD"/><line x1="-10" y1="2.6" x2="10" y2="2.6" stroke-width="0.005" stroke="#DDD"/><line x1="-10" y1="2.8000000000000003" x2="10" y2="2.8000000000000003" stroke-width="0.005" stroke="#DDD"/><line x1="-10" y1="3" x2="10" y2="3" stroke-width="0.005" stroke="#DDD"/><line x1="-10" y1="3.2" x2="10" y2="3.2" stroke-width="0.005" stroke="#DDD"/><line x1="-10" y1="3.4000000000000004" x2="10" y2="3.4000000000000004" stroke-width="0.005" stroke="#DDD"/><line x1="-10" y1="3.6" x2="10" y2="3.6" stroke-width="0.005" stroke="#DDD"/><line x1="-10" y1="3.8000000000000003" x2="10" y2="3.8000000000000003" stroke-width="0.005" stroke="#DDD"/><line x1="-10" y1="4" x2="10" y2="4" stroke-width="0.005" stroke="#DDD"/><line x1="-10" y1="-10" x2="-10" y2="10" stroke-width="0.005" stroke="#AAA"/><line x1="-9" y1="-10" x2="-9" y2="10" stroke-width="0.005" stroke="#AAA"/><line x1="-8" y1="-10" x2="-8" y2="10" stroke-width="0.005" stroke="#AAA"/><line x1="-7" y1="-10" x2="-7" y2="10" stroke-width="0.005" stroke="#AAA"/><line x1="-6" y1="-10" x2="-6" y2="10" stroke-width="0.005" stroke="#AAA"/><line x1="-5" y1="-10" x2="-5" y2="10" stroke-width="0.005" stroke="#AAA"/><line x1="-4" y1="-10" x2="-4" y2="10" stroke-width="0.005" stroke="#AAA"/><line x1="-3" y1="-10" x2="-3" y2="10" stroke-width="0.005" stroke="#AAA"/><line x1="-2" y1="-10" x2="-2" y2="10" stroke-width="0.005" stroke="#AAA"/><line x1="-1" y1="-10" x2="-1" y2="10" stroke-width="0.005" stroke="#AAA"/><line x1="0" y1="-10" x2="0" y2="10" stroke-width="0.005" stroke="#AAA"/><line x1="1" y1="-10" x2="1" y2="10" stroke-width="0.005" stroke="#AAA"/><line x1="2" y1="-10" x2="2" y2="10" stroke-width="0.005" stroke="#AAA"/><line x1="3" y1="-10" x2="3" y2="10" stroke-width="0.005" stroke="#AAA"/><line x1="4" y1="-10" x2="4" y2="10" stroke-width="0.005" stroke="#AAA"/><line x1="5" y1="-10" x2="5" y2="10" stroke-width="0.005" stroke="#AAA"/><line x1="6" y1="-10" x2="6" y2="10" stroke-width="0.005" stroke="#AAA"/><line x1="7" y1="-10" x2="7" y2="10" stroke-width="0.005" stroke="#AAA"/><line x1="8" y1="-10" x2="8" y2="10" stroke-width="0.005" stroke="#AAA"/><line x1="9" y1="-10" x2="9" y2="10" stroke-width="0.005" stroke="#AAA"/><line x1="10" y1="-10" x2="10" y2="10" stroke-width="0.005" stroke="#AAA"/><line x1="-10" y1="-10" x2="10" y2="-10" stroke-width="0.005" stroke="#AAA"/><line x1="-10" y1="-9" x2="10" y2="-9" stroke-width="0.005" stroke="#AAA"/><line x1="-10" y1="-8" x2="10" y2="-8" stroke-width="0.005" stroke="#AAA"/><line x1="-10" y1="-7" x2="10" y2="-7" stroke-width="0.005" stroke="#AAA"/><line x1="-10" y1="-6" x2="10" y2="-6" stroke-width="0.005" stroke="#AAA"/><line x1="-10" y1="-5" x2="10" y2="-5" stroke-width="0.005" stroke="#AAA"/><line x1="-10" y1="-4" x2="10" y2="-4" stroke-width="0.005" stroke="#AAA"/><line x1="-10" y1="-3" x2="10" y2="-3" stroke-width="0.005" stroke="#AAA"/><line x1="-10" y1="-2" x2="10" y2="-2" stroke-width="0.005" stroke="#AAA"/><line x1="-10" y1="-1" x2="10" y2="-1" stroke-width="0.005" stroke="#AAA"/><line x1="-10" y1="0" x2="10" y2="0" stroke-width="0.005" stroke="#AAA"/><line x1="-10" y1="1" x2="10" y2="1" stroke-width="0.005" stroke="#AAA"/><line x1="-10" y1="2" x2="10" y2="2" stroke-width="0.005" stroke="#AAA"/><line x1="-10" y1="3" x2="10" y2="3" stroke-width="0.005" stroke="#AAA"/><line x1="-10" y1="4" x2="10" y2="4" stroke-width="0.005" stroke="#AAA"/><line x1="-10" y1="5" x2="10" y2="5" stroke-width="0.005" stroke="#AAA"/><line x1="-10" y1="6" x2="10" y2="6" stroke-width="0.005" stroke="#AAA"/><line x1="-10" y1="7" x2="10" y2="7" stroke-width="0.005" stroke="#AAA"/><line x1="-10" y1="8" x2="10" y2="8" stroke-width="0.005" stroke="#AAA"/><line x1="-10" y1="9" x2="10" y2="9" stroke-width="0.005" stroke="#AAA"/><line x1="-10" y1="10" x2="10" y2="10" stroke-width="0.005" stroke="#AAA"/><line x1="-50" y1="-10" x2="-50" y2="10" stroke-width="0.005" stroke="#444"/><line x1="-45" y1="-10" x2="-45" y2="10" stroke-width="0.005" stroke="#444"/><line x1="-40" y1="-10" x2="-40" y2="10" stroke-width="0.005" stroke="#444"/><line x1="-35" y1="-10" x2="-35" y2="10" stroke-width="0.005" stroke="#444"/><line x1="-30" y1="-10" x2="-30" y2="10" stroke-width="0.005" stroke="#444"/><line x1="-25" y1="-10" x2="-25" y2="10" stroke-width="0.005" stroke="#444"/><line x1="-20" y1="-10" x2="-20" y2="10" stroke-width="0.005" stroke="#444"/><line x1="-15" y1="-10" x2="-15" y2="10" stroke-width="0.005" stroke="#444"/><line x1="-10" y1="-10" x2="-10" y2="10" stroke-width="0.005" stroke="#444"/><line x1="-5" y1="-10" x2="-5" y2="10" stroke-width="0.005" stroke="#444"/><line x1="0" y1="-10" x2="0" y2="10" stroke-width="0.005" stroke="#444"/><line x1="5" y1="-10" x2="5" y2="10" stroke-width="0.005" stroke="#444"/><line x1="10" y1="-10" x2="10" y2="10" stroke-width="0.005" stroke="#444"/><line x1="15" y1="-10" x2="15" y2="10" stroke-width="0.005" stroke="#444"/><line x1="20" y1="-10" x2="20" y2="10" stroke-width="0.005" stroke="#444"/><line x1="25" y1="-10" x2="25" y2="10" stroke-width="0.005" stroke="#444"/><line x1="30" y1="-10" x2="30" y2="10" stroke-width="0.005" stroke="#444"/><line x1="35" y1="-10" x2="35" y2="10" stroke-width="0.005" stroke="#444"/><line x1="40" y1="-10" x2="40" y2="10" stroke-width="0.005" stroke="#444"/><line x1="45" y1="-10" x2="45" y2="10" stroke-width="0.005" stroke="#444"/><line x1="50" y1="-10" x2="50" y2="10" stroke-width="0.005" stroke="#444"/><line x1="-10" y1="-50" x2="10" y2="-50" stroke-width="0.005" stroke="#444"/><line x1="-10" y1="-45" x2="10" y2="-45" stroke-width="0.005" stroke="#444"/><line x1="-10" y1="-40" x2="10" y2="-40" stroke-width="0.005" stroke="#444"/><line x1="-10" y1="-35" x2="10" y2="-35" stroke-width="0.005" stroke="#444"/><line x1="-10" y1="-30" x2="10" y2="-30" stroke-width="0.005" stroke="#444"/><line x1="-10" y1="-25" x2="10" y2="-25" stroke-width="0.005" stroke="#444"/><line x1="-10" y1="-20" x2="10" y2="-20" stroke-width="0.005" stroke="#444"/><line x1="-10" y1="-15" x2="10" y2="-15" stroke-width="0.005" stroke="#444"/><line x1="-10" y1="-10" x2="10" y2="-10" stroke-width="0.005" stroke="#444"/><line x1="-10" y1="-5" x2="10" y2="-5" stroke-width="0.005" stroke="#444"/><line x1="-10" y1="0" x2="10" y2="0" stroke-width="0.005" stroke="#444"/><line x1="-10" y1="5" x2="10" y2="5" stroke-width="0.005" stroke="#444"/><line x1="-10" y1="10" x2="10" y2="10" stroke-width="0.005" stroke="#444"/><line x1="-10" y1="15" x2="10" y2="15" stroke-width="0.005" stroke="#444"/><line x1="-10" y1="20" x2="10" y2="20" stroke-width="0.005" stroke="#444"/><line x1="-10" y1="25" x2="10" y2="25" stroke-width="0.005" stroke="#444"/><line x1="-10" y1="30" x2="10" y2="30" stroke-width="0.005" stroke="#444"/><line x1="-10" y1="35" x2="10" y2="35" stroke-width="0.005" stroke="#444"/><line x1="-10" y1="40" x2="10" y2="40" stroke-width="0.005" stroke="#444"/><line x1="-10" y1="45" x2="10" y2="45" stroke-width="0.005" stroke="#444"/><line x1="-10" y1="50" x2="10" y2="50" stroke-width="0.005" stroke="#444"/><text text-anchor="middle" font-size="0.05" x="-4" y="0.06">-4.0</text><text text-anchor="middle" font-size="0.05" x="-3.8000000000000003" y="0.06">-3.8</text><text text-anchor="middle" font-size="0.05" x="-3.6" y="0.06">-3.6</text><text text-anchor="middle" font-size="0.05" x="-3.4000000000000004" y="0.06">-3.4</text><text text-anchor="middle" font-size="0.05" x="-3.2" y="0.06">-3.2</text><text text-anchor="middle" font-size="0.05" x="-3" y="0.06">-3.0</text><text text-anchor="middle" font-size="0.05" x="-2.8000000000000003" y="0.06">-2.8</text><text text-anchor="middle" font-size="0.05" x="-2.6" y="0.06">-2.6</text><text text-anchor="middle" font-size="0.05" x="-2.4000000000000004" y="0.06">-2.4</text><text text-anchor="middle" font-size="0.05" x="-2.2" y="0.06">-2.2</text><text text-anchor="middle" font-size="0.05" x="-2" y="0.06">-2.0</text><text text-anchor="middle" font-size="0.05" x="-1.8" y="0.06">-1.8</text><text text-anchor="middle" font-size="0.05" x="-1.6" y="0.06">-1.6</text><text text-anchor="middle" font-size="0.05" x="-1.4000000000000001" y="0.06">-1.4</text><text text-anchor="middle" font-size="0.05" x="-1.2000000000000002" y="0.06">-1.2</text><text text-anchor="middle" font-size="0.05" x="-1" y="0.06">-1.0</text><text text-anchor="middle" font-size="0.05" x="-0.8" y="0.06">-0.8</text><text text-anchor="middle" font-size="0.05" x="-0.6000000000000001" y="0.06">-0.6</text><text text-anchor="middle" font-size="0.05" x="-0.4" y="0.06">-0.4</text><text text-anchor="middle" font-size="0.05" x="-0.2" y="0.06">-0.2</text><text text-anchor="middle" font-size="0.05" x="0.2" y="0.06">0.2</text><text text-anchor="middle" font-size="0.05" x="0.4" y="0.06">0.4</text><text text-anchor="middle" font-size="0.05" x="0.6000000000000001" y="0.06">0.6</text><text text-anchor="middle" font-size="0.05" x="0.8" y="0.06">0.8</text><text text-anchor="middle" font-size="0.05" x="1" y="0.06">1.0</text><text text-anchor="middle" font-size="0.05" x="1.2000000000000002" y="0.06">1.2</text><text text-anchor="middle" font-size="0.05" x="1.4000000000000001" y="0.06">1.4</text><text text-anchor="middle" font-size="0.05" x="1.6" y="0.06">1.6</text><text text-anchor="middle" font-size="0.05" x="1.8" y="0.06">1.8</text><text text-anchor="middle" font-size="0.05" x="2" y="0.06">2.0</text><text text-anchor="middle" font-size="0.05" x="2.2" y="0.06">2.2</text><text text-anchor="middle" font-size="0.05" x="2.4000000000000004" y="0.06">2.4</text><text text-anchor="middle" font-size="0.05" x="2.6" y="0.06">2.6</text><text text-anchor="middle" font-size="0.05" x="2.8000000000000003" y="0.06">2.8</text><text text-anchor="middle" font-size="0.05" x="3" y="0.06">3.0</text><text text-anchor="middle" font-size="0.05" x="3.2" y="0.06">3.2</text><text text-anchor="middle" font-size="0.05" x="3.4000000000000004" y="0.06">3.4</text><text text-anchor="middle" font-size="0.05" x="3.6" y="0.06">3.6</text><text text-anchor="middle" font-size="0.05" x="3.8000000000000003" y="0.06">3.8</text><text text-anchor="middle" font-size="0.05" x="4" y="0.06">4.0</text><text text-anchor="end" font-size="0.05" y="-4.01" x="-0.01">4.0</text><text text-anchor="end" font-size="0.05" y="-3.81" x="-0.01">3.8</text><text text-anchor="end" font-size="0.05" y="-3.61" x="-0.01">3.6</text><text text-anchor="end" font-size="0.05" y="-3.41" x="-0.01">3.4</text><text text-anchor="end" font-size="0.05" y="-3.21" x="-0.01">3.2</text><text text-anchor="end" font-size="0.05" y="-3.01" x="-0.01">3.0</text><text text-anchor="end" font-size="0.05" y="-2.81" x="-0.01">2.8</text><text text-anchor="end" font-size="0.05" y="-2.61" x="-0.01">2.6</text><text text-anchor="end" font-size="0.05" y="-2.41" x="-0.01">2.4</text><text text-anchor="end" font-size="0.05" y="-2.21" x="-0.01">2.2</text><text text-anchor="end" font-size="0.05" y="-2.01" x="-0.01">2.0</text><text text-anchor="end" font-size="0.05" y="-1.81" x="-0.01">1.8</text><text text-anchor="end" font-size="0.05" y="-1.61" x="-0.01">1.6</text><text text-anchor="end" font-size="0.05" y="-1.4100000000000001" x="-0.01">1.4</text><text text-anchor="end" font-size="0.05" y="-1.2100000000000002" x="-0.01">1.2</text><text text-anchor="end" font-size="0.05" y="-1.01" x="-0.01">1.0</text><text text-anchor="end" font-size="0.05" y="-0.81" x="-0.01">0.8</text><text text-anchor="end" font-size="0.05" y="-0.6100000000000001" x="-0.01">0.6</text><text text-anchor="end" font-size="0.05" y="-0.41000000000000003" x="-0.01">0.4</text><text text-anchor="end" font-size="0.05" y="-0.21000000000000002" x="-0.01">0.2</text><text text-anchor="end" font-size="0.05" y="-0.01" x="-0.01">0.0</text><text text-anchor="end" font-size="0.05" y="0.19" x="-0.01">-0.2</text><text text-anchor="end" font-size="0.05" y="0.39" x="-0.01">-0.4</text><text text-anchor="end" font-size="0.05" y="0.5900000000000001" x="-0.01">-0.6</text><text text-anchor="end" font-size="0.05" y="0.79" x="-0.01">-0.8</text><text text-anchor="end" font-size="0.05" y="0.99" x="-0.01">-1.0</text><text text-anchor="end" font-size="0.05" y="1.1900000000000002" x="-0.01">-1.2</text><text text-anchor="end" font-size="0.05" y="1.3900000000000001" x="-0.01">-1.4</text><text text-anchor="end" font-size="0.05" y="1.59" x="-0.01">-1.6</text><text text-anchor="end" font-size="0.05" y="1.79" x="-0.01">-1.8</text><text text-anchor="end" font-size="0.05" y="1.99" x="-0.01">-2.0</text><text text-anchor="end" font-size="0.05" y="2.1900000000000004" x="-0.01">-2.2</text><text text-anchor="end" font-size="0.05" y="2.3900000000000006" x="-0.01">-2.4</text><text text-anchor="end" font-size="0.05" y="2.5900000000000003" x="-0.01">-2.6</text><text text-anchor="end" font-size="0.05" y="2.7900000000000005" x="-0.01">-2.8</text><text text-anchor="end" font-size="0.05" y="2.99" x="-0.01">-3.0</text><text text-anchor="end" font-size="0.05" y="3.1900000000000004" x="-0.01">-3.2</text><text text-anchor="end" font-size="0.05" y="3.3900000000000006" x="-0.01">-3.4</text><text text-anchor="end" font-size="0.05" y="3.5900000000000003" x="-0.01">-3.6</text><text text-anchor="end" font-size="0.05" y="3.7900000000000005" x="-0.01">-3.8</text><text text-anchor="end" font-size="0.05" y="3.99" x="-0.01">-4.0</text></g>
            <text x="-2" y="-1.85" font-family="Verdana" font-size="0.1" style="pointer-events:none" fill="#444" transform="rotate(0,0,0)"> Distances and Angles </text>,<text x="-2" y="-1.71" font-family="Verdana" font-size="0.1" style="pointer-events:none" fill="#444" transform="rotate(0,0,0)"> Drag the points </text>,,<polygon style="pointer-events:none; fill:#d0ffe1;opacity:0.7" points="-1,0.4578637182712555 ,-1,-1 ,1,-1 "/>,,<line style="pointer-events:none" x1="-10" y1="-1" x2="10" y2="-1" stroke="#00aa88" transform="rotate(-90,0,0)"/>,<text x="0.5" y="-1.05" font-family="Verdana" font-size="0.1" style="pointer-events:none" fill="#00aa88" transform="rotate(-90,0,0)"> 1.458 </text>,<line style="pointer-events:none" x1="-10" y1="-1" x2="10" y2="-1" stroke="#00aa88" transform="rotate(0,0,0)"/>,<text x="0.5" y="-1.05" font-family="Verdana" font-size="0.1" style="pointer-events:none" fill="#00aa88" transform="rotate(0,0,0)"> 2.000 </text>,<line style="pointer-events:none" x1="-10" y1="-0.2190495878458023" x2="10" y2="-0.2190495878458023" stroke="#00aa88" transform="rotate(-36.08949980649509,0,0)"/>,<text x="0.5" y="-0.2690495878458023" font-family="Verdana" font-size="0.1" style="pointer-events:none" fill="#00aa88" transform="rotate(-36.08949980649509,0,0)"> 2.475 </text>,,<line style="pointer-events:none" x1="-1" y1="-1" x2="-0.3060442805290222" y2="-0.047982726246118546" stroke="#882288"/>,<text x="-0.6530221402645111" y="-0.5239913631230593" font-family="Verdana" font-size="0.1" style="pointer-events:none" fill="#882288" transform="rotate(0,0,0)"> 1.178 </text>,,<circle  cx="-1" cy="0.4578637182712555" r="0.03" fill="#224488"/>,<text x="-1.1" y="0.4078637182712555" font-family="Verdana" font-size="0.1" style="pointer-events:none" fill="#224488" transform="rotate(0,0,0)"> 53° </text>,<circle  cx="-1" cy="-1" r="0.03" fill="#224488"/>,<text x="-1.1" y="-1.05" font-family="Verdana" font-size="0.1" style="pointer-events:none" fill="#224488" transform="rotate(0,0,0)"> 90° </text>,<circle  cx="1" cy="-1" r="0.03" fill="#224488"/>,<text x="0.9" y="-1.05" font-family="Verdana" font-size="0.1" style="pointer-events:none" fill="#224488" transform="rotate(0,0,0)"> 36° </text></svg>